<svg xmlns="http://www.w3.org/2000/svg" width="200" height="200" viewBox="0 0 200 200"><path fill="url('#a')" d="M0 0h200v200H0z"/><defs><linearGradient id="a" gradientTransform="rotate(45 .5 .5)"><stop offset="0%" stop-color="#0707a3"/><stop offset="100%" stop-color="#0707a3"/></linearGradient></defs><path fill="#fff" stroke="none" stroke-width="0" d="M64.4 98v24.2q-3.3 3.6-9.6 5.9-6.3 2.2-13.8 2.2-11.6 0-18.5-7-7-7.2-7.5-19.8v-5.1q0-8.7 3-15.2 3.2-6.5 8.9-10t13.3-3.5q11 0 17 5t7.2 15H50.7q-.7-4.9-3.2-7-2.4-2.1-6.9-2.1-5.3 0-8.2 4.6-3 4.5-3 12.9v3.6q0 8.8 3 13.2 3 4.5 9.5 4.5 5.6 0 8.3-2.5v-9.1h-10V98zm34.1 31.5-.4-4.7q-4.3 5.5-11.7 5.5-7.2 0-10.9-4.2t-3.7-12V85.7h13.6V114q0 5.7 5.5 5.7 4.7 0 6.7-3.4V85.7h13.7v43.8zm43.3-12.3q0-1.8-1.9-2.8t-6.9-2.2q-5-1.1-8.4-3-3.3-1.8-5-4.5-1.8-2.6-1.8-6 0-6 5-10 5-3.8 13-3.8 8.7 0 14 4Q155 92.6 155 99h-13.7q0-5.2-5.6-5.2-2.1 0-3.6 1.1-1.4 1.2-1.4 3t1.8 3 5.7 1.8 6.8 1.8q9.9 3.4 9.9 12.2 0 6-5.3 9.7-5.4 3.8-13.8 3.8-5.7 0-10-2-4.4-2-7-5.5-2.4-3.5-2.4-7.4h12.8q0 3 2 4.5 2 1.4 5 1.4 2.7 0 4.1-1.2 1.5-1.1 1.5-3m21.7-42.4h13.7v10.9h7.2v9.5h-7.2v20q0 2.5.9 3.4.9 1 3.5 1 2 0 3.4-.2v9.7q-3.7 1.2-7.7 1.2-7 0-10.4-3.3-3.4-3.4-3.4-10.1V95.2H158v-9.5h5.6z"/></svg>
